<svg id="Capa_1" enable-background="new 0 0 512 512" height="512" viewBox="0 0 512 512" width="512" xmlns="http://www.w3.org/2000/svg"><g><g><g><path d="m213.53 184.42v264.667h42.47l10.667-109.96-10.667-154.707z" fill="#bedffe"/><path d="m457 184.42h-201v313.826l127.451-49.16h128.549v-209.666c0-30.327-24.672-55-55-55z" fill="#a2d2fd"/></g><path d="m399.028 389.857 28.067-10.592-51.377-136.141-25.491.026-51.818 136.056 28.035 10.677 12.319-32.347h48.067zm-48.839-62.32 12.718-33.392 12.602 33.392z" fill="#f7f0eb"/></g><g><g><path d="m298.716 13.754h-42.716l-10.667 131.706 10.667 132.96h42.716z" fill="#dd4c12"/><path d="m55 13.754c-30.327 0-55 24.673-55 55v209.666h141.294l114.706 49.16v-313.826z" fill="#df6426"/></g><path d="m220.98 199.724-17.928-17.928c7.125-11.167 11.274-24.408 11.274-38.608 0-39.699-32.297-71.997-71.997-71.997s-71.997 32.297-71.997 71.997 32.297 71.997 71.997 71.997c14.666 0 28.315-4.418 39.705-11.979l17.731 17.731zm-78.65-14.54c-23.157 0-41.997-18.839-41.997-41.997 0-23.157 18.839-41.997 41.997-41.997s41.997 18.839 41.997 41.997c0 5.855-1.208 11.432-3.382 16.501l-17.646-17.646-21.213 21.213 17.985 17.985c-5.394 2.525-11.403 3.944-17.741 3.944z" fill="#fffbf5"/></g></g></svg>